<svg width="32" height="32" xmlns="http://www.w3.org/2000/svg" viewBox="0 0 32 32">
  <path d="M21.5 12c.3 0 .6 0 .9.1-1-4.7-6.1-8.1-11.4-8.1-6.3 0-11.5 4.3-11.5 9.6 0 3.1 1.5 5.9 4 7.8l-1 3.6 4.1-2c1.3.3 2.4.4 3.7.4.4 0 .8 0 1.2-.1-.3-.9-.4-1.8-.4-2.8 0-5.2 4.3-9.5 10.4-9.5zm-6.8-3.4c.8 0 1.4.6 1.4 1.4s-.6 1.4-1.4 1.4-1.4-.6-1.4-1.4.6-1.4 1.4-1.4zm-7.4 2.8c-.8 0-1.4-.6-1.4-1.4s.6-1.4 1.4-1.4 1.4.6 1.4 1.4-.6 1.4-1.4 1.4z" fill="white"/>
  <path d="M32 20.5c0-4.6-4.3-8.5-9.5-8.5s-9.5 3.9-9.5 8.5 4.3 8.5 9.5 8.5c1.1 0 2.2-.2 3.2-.5l3.2 1.6-.8-2.9c2.1-1.5 3.4-3.8 3.4-6.2zm-12.7-1.4c-.6 0-1.1-.5-1.1-1.1s.5-1.1 1.1-1.1 1.1.5 1.1 1.1-.5 1.1-1.1 1.1zm5.4 0c-.6 0-1.1-.5-1.1-1.1s.5-1.1 1.1-1.1 1.1.5 1.1 1.1-.5 1.1-1.1 1.1z" fill="white"/>
</svg>
